<svg width="18" height="18" viewBox="0 0 18 18" fill="none" xmlns="http://www.w3.org/2000/svg">
<path fill-rule="evenodd" clip-rule="evenodd" d="M8.86798 0C13.7657 0 17.736 3.97031 17.736 8.86798C17.736 13.7656 13.7657 17.736 8.86798 17.736C3.97035 17.736 0 13.7657 0 8.86798C0 3.97031 3.97035 0 8.86798 0ZM9.75672 7.9812H7.98315V13.302H9.75672V7.9812ZM8.877 4.21228C8.23044 4.21228 7.76142 4.67869 7.76142 5.30849C7.76142 5.96378 8.2181 6.42931 8.877 6.42931C9.5103 6.42931 9.97845 5.96374 9.97845 5.3208C9.97845 4.67873 9.5103 4.21228 8.877 4.21228Z" fill="#1E1E1E"/>
</svg>
