<svg width="18" height="17" viewBox="0 0 18 17" fill="none" xmlns="http://www.w3.org/2000/svg">
<path d="M16.3859 14.9268H7.88812V6.69335C8.10187 6.69335 8.3093 6.70598 8.51568 6.68756C8.6036 6.67966 8.71784 6.62649 8.75891 6.55752C8.78734 6.50961 8.73311 6.37852 8.67836 6.32008C8.30351 5.91838 7.91866 5.52616 7.5138 5.1092H16.3859V14.9268ZM14.032 9.51892H12.6832V10.8646H14.032V9.51892ZM14.032 11.071C13.6014 11.071 13.1855 11.0678 12.7685 11.0767C12.7353 11.0767 12.6769 11.1584 12.6759 11.2036C12.6669 11.4842 12.6711 11.7654 12.6711 12.046V12.4314H14.0315L14.032 11.071ZM10.0614 10.8704V9.51998H8.71574V10.8704H10.0614ZM10.2915 9.51734V10.8693H11.6345V9.51734H10.2915ZM14.2447 9.51313V10.8646H15.5841V9.51313H14.2447ZM8.72784 12.4298H10.0709V11.0836H8.72679L8.72784 12.4298ZM11.6308 12.4477V11.0968H10.2873V12.4477H11.6308ZM15.5883 11.0836H14.2463V12.4329H15.5883V11.0836Z" fill="#F3F3F3"/>
<path d="M1.08137 6.70071H7.50959V14.9221H6.03863V14.2903H4.3913V14.9221H4.20019V14.2903H2.55339V14.9221H1.07927L1.08137 6.70071ZM2.55971 12.6146H4.18861V11.3621H2.55971V12.6146ZM2.56392 12.8209V14.0845H4.18545V12.8209H2.56392ZM4.4013 12.6172H6.02547V11.3573H4.39972L4.4013 12.6172ZM4.4013 12.8178V14.0813H6.02178V12.8178H4.4013ZM4.4013 9.52681V11.1468H6.01757C6.04442 10.3492 5.20944 9.51259 4.40078 9.52786L4.4013 9.52681ZM4.19071 9.51417C3.28308 9.59366 2.5139 10.3818 2.57919 11.1462H4.19071V9.51417ZM4.29232 8.52967C4.36574 8.531 4.43868 8.5177 4.5069 8.49055C4.57512 8.46341 4.63726 8.42295 4.68969 8.37155C4.74212 8.32015 4.78379 8.25883 4.81229 8.19116C4.84078 8.12349 4.85552 8.05082 4.85565 7.9774C4.85805 7.82919 4.8016 7.68606 4.69867 7.57939C4.59575 7.47272 4.45474 7.41119 4.30654 7.40828C4.23173 7.40717 4.15743 7.42088 4.08794 7.44861C4.01845 7.47634 3.95513 7.51755 3.90164 7.56987C3.84815 7.62218 3.80554 7.68457 3.77627 7.75343C3.747 7.82229 3.73165 7.89626 3.73111 7.97108C3.73125 8.11956 3.79032 8.2619 3.89536 8.36684C4.0004 8.47177 4.1428 8.53072 4.29127 8.53072L4.29232 8.52967Z" fill="#F3F3F3"/>
<path d="M6.19657 3.85724L8.0129 2.4542C9.03478 1.66449 10.0588 0.874782 11.0775 0.0819156C11.2154 -0.0233787 11.316 -0.0296972 11.4544 0.0777029C13.2795 1.49181 15.1062 2.90345 16.9345 4.31264C17.0287 4.38529 17.1367 4.47058 17.0629 4.58851C17.0307 4.62713 16.9904 4.65835 16.945 4.68006C16.8996 4.70177 16.85 4.71346 16.7997 4.71434C13.6251 4.72066 10.4505 4.72066 7.27584 4.71434C7.17943 4.70659 7.08823 4.66738 7.01629 4.60273C6.74516 4.36897 6.48455 4.12206 6.19657 3.85724ZM11.2696 1.22488L8.08502 3.68877H14.4553L11.2696 1.22488Z" fill="#F3F3F3"/>
<path d="M0.335889 16.2146C0.033168 16.2146 0 16.1809 0 15.8729C0 15.7592 0 15.6455 0 15.5317C0 15.3849 0.0731807 15.3106 0.221646 15.3133C0.274293 15.3133 0.329571 15.3133 0.383271 15.3133H17.7968C17.93 15.3133 17.9948 15.3885 17.9974 15.5159C18.0006 15.6834 18.0011 15.8513 17.9974 16.0187C17.9987 16.0444 17.9946 16.0701 17.9853 16.0941C17.9761 16.1181 17.9619 16.1399 17.9437 16.158C17.9255 16.1762 17.9036 16.1903 17.8796 16.1995C17.8556 16.2087 17.8299 16.2128 17.8042 16.2114C17.7442 16.2151 17.6847 16.2114 17.6247 16.2114L0.335889 16.2146Z" fill="#F3F3F3"/>
<path d="M4.28442 6.3148H1.1098C1.06237 6.32081 1.01431 6.31992 0.967129 6.31216C0.882367 6.28479 0.750749 6.25952 0.733376 6.20371C0.710737 6.13053 0.753908 6.00418 0.812346 5.94048C1.43621 5.2866 2.06851 4.64062 2.69817 3.99253C3.15655 3.52081 3.6151 3.04874 4.07384 2.57632C4.26705 2.37679 4.32128 2.37468 4.5087 2.5679C5.58586 3.68191 6.66285 4.79628 7.73966 5.91099C7.82021 5.99417 7.92603 6.09052 7.84127 6.20108C7.78862 6.26899 7.66069 6.30637 7.56645 6.30637C6.47244 6.3169 5.37843 6.3148 4.28442 6.3148ZM4.31443 3.27389L2.0027 5.64617H6.60669L4.31443 3.27389Z" fill="#F3F3F3"/>
</svg>
