<svg width="18" height="18" viewBox="0 0 18 18" fill="none" xmlns="http://www.w3.org/2000/svg">
<path fill-rule="evenodd" clip-rule="evenodd" d="M6.00518 4.98779H11.9949C15.0322 4.98779 16.5509 4.98779 17.404 5.87594C18.257 6.76409 18.0563 8.13629 17.6549 10.8806L17.2742 13.483C16.9594 15.6351 16.8021 16.7112 15.9946 17.3556C15.1871 18 13.9961 18 11.6142 18H6.38586C4.00395 18 2.81299 18 2.00552 17.3556C1.19804 16.7112 1.04064 15.6351 0.725836 13.483L0.345161 10.8806C-0.0562678 8.13629 -0.256978 6.76409 0.596091 5.87594C1.44916 4.98779 2.96784 4.98779 6.00518 4.98779ZM5.40003 14.4001C5.40003 14.0274 5.73582 13.7251 6.15003 13.7251H11.8501C12.2643 13.7251 12.6001 14.0274 12.6001 14.4001C12.6001 14.7729 12.2643 15.0751 11.8501 15.0751H6.15003C5.73582 15.0751 5.40003 14.7729 5.40003 14.4001Z" fill="#8C8C8C"/>
<path d="M5.85908 6.56361e-06H12.1412C12.3504 -4.74366e-05 12.5109 -8.3385e-05 12.6511 0.0136327C13.6481 0.111166 14.4642 0.710623 14.8103 1.51811H3.19C3.53607 0.710623 4.35215 0.111166 5.3492 0.0136327C5.48943 -8.3385e-05 5.64984 -4.74366e-05 5.85908 6.56361e-06Z" fill="#8C8C8C"/>
<path d="M3.87964 2.45039C2.62808 2.45039 1.60183 3.20617 1.25935 4.20881C1.25222 4.22971 1.24538 4.25072 1.23882 4.27183C1.59716 4.16331 1.97009 4.09242 2.34762 4.04403C3.31996 3.91937 4.54877 3.91943 5.9762 3.91951H12.1791C13.6065 3.91943 14.8354 3.91937 15.8077 4.04403C16.1852 4.09242 16.5582 4.16331 16.9165 4.27183C16.9099 4.25072 16.9031 4.22971 16.896 4.20881C16.5535 3.20617 15.5272 2.45039 14.2757 2.45039H3.87964Z" fill="#8C8C8C"/>
</svg>
