<svg width="18" height="17" viewBox="0 0 18 17" fill="none" xmlns="http://www.w3.org/2000/svg">
<path d="M7.47515 11.0975C7.47515 10.8478 7.47106 10.6252 7.47515 10.4025C7.48641 9.89999 7.27915 9.53255 6.82522 9.30226C6.79927 9.28518 6.77746 9.26254 6.76135 9.23599C6.74524 9.20943 6.73524 9.17963 6.73208 9.14873C6.72542 8.65079 6.72338 8.15233 6.73208 7.65439C6.73668 7.31816 6.9767 7.09709 7.33084 7.09606C8.17319 7.09299 9.01606 7.09606 9.85893 7.09606H16.217C16.7006 7.09606 16.9074 7.30077 16.9089 7.77977C16.9089 8.23319 16.9089 8.68661 16.9089 9.14003C16.9148 9.18933 16.9055 9.23925 16.8824 9.2832C16.8593 9.32714 16.8234 9.36305 16.7795 9.38619C16.619 9.48091 16.4866 9.61673 16.3961 9.77965C16.3056 9.94256 16.2602 10.1267 16.2646 10.313C16.2646 10.5689 16.2646 10.8212 16.2646 11.1042C13.3287 10.6031 10.4116 10.53 7.47515 11.0975Z" fill="#F3F3F3"/>
<path d="M11.8225 3.89858L10.9014 2.30343C10.872 2.24689 10.8387 2.1925 10.8016 2.14069C10.689 1.99637 10.5222 1.9974 10.4173 2.14683C10.3482 2.2456 10.2929 2.3546 10.232 2.45951C9.74429 3.30494 9.25403 4.14832 8.77297 4.99733C8.69928 5.12732 8.61944 5.17338 8.47206 5.16877C8.12918 5.15751 7.78528 5.16519 7.43267 5.16519V0H16.3015V5.07051C16.2447 4.97993 16.2042 4.91699 16.1679 4.85558L13.9852 1.07827C13.8015 0.75996 13.6362 0.760984 13.452 1.07827C12.9511 1.9452 12.4506 2.81246 11.9505 3.68006C11.9136 3.74659 11.8747 3.81005 11.8225 3.89858ZM8.22386 1.07623C8.22386 1.2284 8.2691 1.37713 8.35382 1.50354C8.43853 1.62995 8.55891 1.72833 8.69965 1.78619C8.8404 1.84404 8.99517 1.85876 9.14429 1.82847C9.29342 1.79818 9.43018 1.72425 9.5372 1.61607C9.64423 1.50789 9.71668 1.37035 9.74537 1.2209C9.77406 1.07146 9.75768 0.916865 9.69833 0.776748C9.63897 0.636631 9.5393 0.517318 9.41199 0.433962C9.28468 0.350605 9.13547 0.306966 8.98331 0.308589C8.88284 0.308446 8.78335 0.328265 8.69061 0.366893C8.59787 0.405522 8.51373 0.462193 8.44307 0.533612C8.37242 0.605031 8.31665 0.689773 8.27902 0.782923C8.24139 0.876073 8.22264 0.975772 8.22386 1.07623Z" fill="#F3F3F3"/>
<path d="M2.05408 14.2597V4.86837H1.85399C1.34223 4.86837 0.833024 4.86837 0.322288 4.86837C0.0362147 4.86837 -0.0482239 4.75732 0.0249577 4.48506C0.299773 3.46154 0.578682 2.44263 0.848891 1.41962C0.900067 1.22157 0.997812 1.13559 1.20968 1.13815C1.9374 1.14736 2.66512 1.14532 3.39285 1.13815C3.58373 1.13815 3.68301 1.20826 3.73265 1.39403C4.00696 2.42932 4.28945 3.46205 4.56785 4.49632C4.63591 4.7481 4.55045 4.86427 4.29099 4.86581C3.71065 4.86888 3.13031 4.86581 2.53719 4.86581V14.2571H3.0515C3.42202 14.2571 3.79202 14.2571 4.16253 14.2571C4.33295 14.2571 4.43326 14.3339 4.43479 14.5058C4.43888 14.9459 4.43888 15.3864 4.43479 15.8272C4.43479 15.9756 4.35649 16.0733 4.19887 16.0687C4.04124 16.0641 3.97728 15.9628 3.97728 15.8129V14.731H0.6099V15.081C0.6099 15.3369 0.6099 15.5928 0.6099 15.8487C0.611994 15.8777 0.607963 15.9069 0.598071 15.9342C0.58818 15.9616 0.572648 15.9866 0.55248 16.0076C0.532312 16.0286 0.507958 16.0451 0.480998 16.0561C0.454039 16.067 0.425074 16.0722 0.395982 16.0713C0.257807 16.0785 0.163645 15.9991 0.161086 15.8707C0.150851 15.405 0.149315 14.9388 0.161086 14.4731C0.164668 14.3098 0.289025 14.2566 0.4446 14.2576C0.910301 14.2612 1.37651 14.2576 1.84273 14.2576L2.05408 14.2597Z" fill="#F3F3F3"/>
<path d="M17.9898 12.6906V14.0248H5.75871V12.6906H17.9898Z" fill="#F3F3F3"/>
<path d="M16.2651 12.2203H16.0251C13.2555 12.2203 10.4857 12.2218 7.71568 12.2249C7.5207 12.2249 7.46543 12.1768 7.47259 11.9818C7.48795 11.5688 7.47669 11.5663 7.84413 11.4987C9.43826 11.204 11.0467 11.1139 12.6649 11.1768C13.8124 11.2229 14.9558 11.3426 16.0881 11.5351C16.237 11.5601 16.2805 11.6159 16.2703 11.7567C16.26 11.8974 16.2651 12.0473 16.2651 12.2203Z" fill="#F3F3F3"/>
<path d="M15.8081 5.1529H11.6337L13.7222 1.53682L15.8081 5.1529Z" fill="#F3F3F3"/>
<path d="M9.20285 5.16519C9.68084 4.33716 10.1368 3.54598 10.6102 2.72563L11.1388 3.63554C11.1675 3.68671 11.1962 3.73482 11.2238 3.78497C11.3313 3.97893 11.5467 4.18978 11.5201 4.36326C11.4807 4.62221 11.2729 4.85608 11.1291 5.09661C11.1144 5.11567 11.0958 5.13135 11.0745 5.14257C11.0533 5.15378 11.0298 5.16028 11.0058 5.16161C10.4771 5.16621 9.94797 5.16467 9.41933 5.16519H9.20285Z" fill="#F3F3F3"/>
<path d="M17.998 12.2111H16.7416C16.737 12.1481 16.7288 12.0934 16.7288 12.0386C16.7288 11.4839 16.7262 10.9296 16.7288 10.3754C16.7288 9.95219 16.9883 9.66765 17.3629 9.66816C17.7375 9.66867 17.999 9.96037 18 10.378C17.999 10.9829 17.998 11.5873 17.998 12.2111Z" fill="#F3F3F3"/>
<path d="M5.74336 12.208C5.74336 11.5489 5.73466 10.9117 5.74694 10.2751C5.75294 10.1104 5.82331 9.95462 5.94292 9.84123C6.06253 9.72784 6.22184 9.66588 6.38664 9.66867C6.55137 9.66799 6.70964 9.73271 6.8267 9.84862C6.94376 9.96453 7.01004 10.1222 7.01098 10.2869C7.01968 10.923 7.01098 11.5591 7.01098 12.208H5.74336Z" fill="#F3F3F3"/>
<path d="M7.68907 14.5074V15.601H6.32779V14.5074H7.68907Z" fill="#F3F3F3"/>
<path d="M17.4135 14.5109V15.6066H16.0579V14.5109H17.4135Z" fill="#F3F3F3"/>
<path d="M8.98331 1.38482C8.94189 1.38375 8.90113 1.3743 8.86346 1.35705C8.82579 1.33981 8.792 1.31512 8.76413 1.28447C8.73625 1.25382 8.71487 1.21785 8.70126 1.17872C8.68766 1.13959 8.68211 1.09811 8.68495 1.05678C8.68619 1.01708 8.69534 0.978021 8.71185 0.941893C8.72836 0.905765 8.75191 0.873294 8.78112 0.846372C8.81033 0.819451 8.84461 0.79862 8.88196 0.785101C8.91931 0.771583 8.95899 0.765649 8.99866 0.767641C9.07877 0.768838 9.15523 0.801295 9.21174 0.858089C9.26825 0.914882 9.30032 0.991514 9.30111 1.07163C9.29977 1.15507 9.26571 1.23465 9.20627 1.29323C9.14683 1.35181 9.06676 1.3847 8.98331 1.38482Z" fill="#F3F3F3"/>
</svg>
