<svg width="19" height="20" viewBox="0 0 19 20" fill="none" xmlns="http://www.w3.org/2000/svg">
<path fill-rule="evenodd" clip-rule="evenodd" d="M16 0C16.7956 0 17.5587 0.316071 18.1213 0.87868C18.6839 1.44129 19 2.20435 19 3V17C19 17.7956 18.6839 18.5587 18.1213 19.1213C17.5587 19.6839 16.7956 20 16 20H9.9999C9.20424 20 8.44117 19.6839 7.87855 19.1213C7.31594 18.5587 6.99987 17.7956 6.99987 17V3C6.99987 2.20435 7.31594 1.44129 7.87855 0.87868C8.44117 0.316071 9.20424 0 9.9999 0H16ZM5.70685 5.293C5.51932 5.10553 5.26501 5.00021 4.99984 5.00021C4.73468 5.00021 4.48036 5.10553 4.29283 5.293L0.292789 9.293C0.105316 9.48053 0 9.73484 0 10C0 10.2652 0.105316 10.5195 0.292789 10.707L4.29283 14.707C4.48144 14.8892 4.73404 14.99 4.99624 14.9877C5.25844 14.9854 5.50926 14.8802 5.69467 14.6948C5.88008 14.5094 5.98525 14.2586 5.98753 13.9964C5.98981 13.7342 5.88901 13.4816 5.70685 13.293L3.41383 11H11.9999C12.2651 11 12.5195 10.8946 12.707 10.7071C12.8946 10.5196 12.9999 10.2652 12.9999 10C12.9999 9.73478 12.8946 9.48043 12.707 9.29289C12.5195 9.10536 12.2651 9 11.9999 9H3.41383L5.70685 6.707C5.89433 6.51947 5.99964 6.26516 5.99964 6C5.99964 5.73484 5.89433 5.48053 5.70685 5.293Z" fill="#1E1E1E"/>
</svg>
