<svg width="50" height="26" viewBox="0 0 50 26" fill="none" xmlns="http://www.w3.org/2000/svg">
<path d="M43.2499 7.25667H33.48C30.9457 7.25667 28.4388 6.6184 26.23 5.376L21.2188 2.56632C17.6959 0.584523 13.7054 -0.273716 9.67816 0.0763093L6.97939 0.310787C4.28565 0.544685 2.22949 2.76251 2.22949 5.46641V9.93281H3.85198C5.28303 9.93281 6.46654 11.0564 6.46654 12.4874V18.9644H43.0387V12.4874C43.0387 11.0564 44.2223 9.93281 45.6533 9.93281H46.5962C46.2147 8.37162 44.8592 7.25667 43.2499 7.25667Z" fill="#1E1E1E"/>
<path d="M43.039 22.4209H6.4668V25.766H43.039V22.4209Z" fill="#1E1E1E"/>
<path d="M3.8525 12.1631H0.333974C0.132565 12.1631 0 12.2862 0 12.4877V25.6547H4.23704V12.4876C4.23704 12.2863 4.05381 12.1631 3.8525 12.1631Z" fill="#1E1E1E"/>
<path d="M49.1726 12.1631H45.6541C45.4527 12.1631 45.2695 12.2862 45.2695 12.4877V25.6547H49.5066V12.4876C49.5066 12.2863 49.374 12.1631 49.1726 12.1631Z" fill="#1E1E1E"/>
</svg>
