<svg width="59" height="47" viewBox="0 0 59 47" fill="none" xmlns="http://www.w3.org/2000/svg">
<path d="M58.7459 2.31892V12.7541H31.6324V0H56.4865C57.0857 6.15004e-06 57.6604 0.244322 58.0842 0.679203C58.5079 1.11408 58.7459 1.70391 58.7459 2.31892ZM45.1892 30.1459H58.7459V17.3919H45.1892V30.1459ZM18.0757 30.1459H40.6703V17.3919H18.0757V30.1459ZM13.5568 17.3919H0V30.1459H13.5568V17.3919ZM31.6324 46.3784H56.4865C57.0857 46.3784 57.6604 46.1341 58.0842 45.6992C58.5079 45.2643 58.7459 44.6745 58.7459 44.0595V34.7838H31.6324V46.3784ZM27.1135 0H2.25946C1.66022 6.15004e-06 1.08552 0.244322 0.661787 0.679203C0.238057 1.11408 5.99235e-06 1.70391 0 2.31892V12.7541H27.1135V0ZM0 44.0595C5.99235e-06 44.6745 0.238057 45.2643 0.661787 45.6992C1.08552 46.1341 1.66022 46.3784 2.25946 46.3784H27.1135V34.7838H0V44.0595Z" fill="black"/>
</svg>
