<svg width="55" height="48" viewBox="0 0 55 48" fill="none" xmlns="http://www.w3.org/2000/svg">
<path d="M24.9588 16.1636H12.8467V25.7064H24.9588V16.1636Z" fill="#1E1E1E"/>
<path d="M13.0469 11.7591H24.9592V0C18.8874 0.941491 14.0658 5.71292 13.0469 11.7591Z" fill="#1E1E1E"/>
<path d="M29.3623 0V11.7592H41.2746C40.2557 5.71292 35.434 0.941491 29.3623 0Z" fill="#1E1E1E"/>
<path d="M41.4744 16.1636H29.3623V25.7064H41.4744V16.1636Z" fill="#1E1E1E"/>
<path d="M52.1187 30.1108H49.1824H45.8791H43.6769H41.4746H40.3736H31.5648H29.3626H27.1604H24.9582H22.756H13.9472H12.8461H10.6439H8.44181H5.13842H2.20222C0.986158 30.1108 0 31.0969 0 32.3131C0 33.5292 0.986158 34.5153 2.20222 34.5153H2.9363V45.5263C2.9363 46.7425 3.92246 47.7285 5.13852 47.7285H13.9473H22.7561H31.5649H40.3737H49.1825C50.3989 47.7285 51.3847 46.7426 51.3847 45.5263V34.5153H52.1188C53.3352 34.5153 54.321 33.5293 54.321 32.3131C54.3209 31.0969 53.3351 30.1108 52.1187 30.1108ZM11.7451 36.1669V38.3691V43.3241H7.34064V34.5153H8.4417H10.6439H11.745L11.7451 36.1669ZM20.5539 36.1669V38.3691V43.3241H16.1495V38.3691V36.1669V34.5152H20.5539V36.1669ZM29.3627 36.1669V38.3691V43.3241H24.9582V38.3691V36.1669V34.5152H27.1604H29.3627V36.1669ZM38.1715 36.1669V38.3691V43.3241H33.767V38.3691V36.1669V34.5152H38.1715V36.1669ZM46.9803 43.3241H42.5758V38.3691V36.1669V34.5152H43.6769H45.8791H46.9801V43.3241H46.9803Z" fill="#1E1E1E"/>
</svg>
