<svg width="63" height="44" viewBox="0 0 63 44" fill="none" xmlns="http://www.w3.org/2000/svg">
<path d="M62.0811 19.639C62.0811 20.2727 61.5559 20.7866 60.908 20.7866H58.9526V28.3749C58.9526 32.2204 56.8745 35.5988 53.7606 37.4965L56.1067 41.7652C56.4135 42.3235 56.1997 43.0193 55.6289 43.3197C55.4521 43.4123 55.262 43.4568 55.0743 43.4568C54.6563 43.4568 54.2519 43.2376 54.0401 42.8526L51.6457 38.4955C50.4965 38.8957 49.2609 39.1155 47.973 39.1155H14.1081C13.0068 39.1155 11.9436 38.9543 10.94 38.6579L8.63464 42.8526C8.42288 43.2379 8.01813 43.4568 7.60048 43.4568C7.41277 43.4568 7.22271 43.4126 7.04586 43.3197C6.4751 43.0193 6.26129 42.3235 6.56808 41.7652L8.77132 37.7564C5.40868 35.9184 3.12859 32.4029 3.12859 28.3746V20.7863H1.17319C0.525294 20.7863 0 20.2725 0 19.6387C0 19.0049 0.525294 18.491 1.17319 18.491H4.30178H57.7794H60.908C61.5559 18.4913 62.0811 19.0052 62.0811 19.639ZM1.17319 8.81169H13.8093C14.8604 8.81169 15.7157 9.64833 15.7157 10.6766V13.1154C15.7157 13.7492 16.241 14.2631 16.8889 14.2631C17.5368 14.2631 18.0621 13.7492 18.0621 13.1154V10.6766C18.0621 8.38276 16.1542 6.51638 13.8093 6.51638H1.17319C0.525294 6.51638 0 7.03025 0 7.66404C0 8.29783 0.525294 8.81169 1.17319 8.81169ZM2.71299 5.3079H4.71708C5.36498 5.3079 5.89027 4.79404 5.89027 4.16025V1.14766C5.89027 0.513863 5.36498 0 4.71708 0H2.71299C1.21689 0 0 1.19041 0 2.65395C0 4.1175 1.21689 5.3079 2.71299 5.3079Z" fill="#1E1E1E"/>
</svg>
