<svg width="45" height="32" viewBox="0 0 45 32" fill="none" xmlns="http://www.w3.org/2000/svg">
<path d="M1.80762 27.1074V29.4461C1.80762 30.3267 2.52154 31.0407 3.40219 31.0407C4.28284 31.0407 4.99677 30.3267 4.99677 29.4461V27.1074H1.80762Z" fill="#1E1E1E"/>
<path d="M39.6523 27.1074V29.4461C39.6523 30.3267 40.3663 31.0407 41.2469 31.0407C42.1276 31.0407 42.8415 30.3267 42.8415 29.4461V27.1074H39.6523Z" fill="#1E1E1E"/>
<path d="M44.6474 14.4575H0V25.9383H44.6474V14.4575Z" fill="#1E1E1E"/>
<path d="M36.6988 0H7.94763C6.62487 0 5.52734 0.977883 5.52734 2.30047V6.59351L7.61696 6.59072C7.59429 6.48442 7.58235 6.39016 7.58235 6.27183C7.58235 5.31775 8.35583 4.57095 9.30982 4.57095H35.337C36.2911 4.57095 37.0645 5.31775 37.0645 6.27183C37.0645 6.39016 37.0524 6.48442 37.0298 6.59072H39.1194V2.30039C39.1192 0.977883 38.0216 0 36.6988 0Z" fill="#1E1E1E"/>
<path d="M39.8171 9.24023H4.81467L2.85254 12.1183H41.7947L39.8171 9.24023Z" fill="#1E1E1E"/>
</svg>
