<svg width="55" height="53" viewBox="0 0 55 53" fill="none" xmlns="http://www.w3.org/2000/svg">
<path d="M53.9157 20.9143L27.8848 0.266698C27.4661 -0.0888994 26.8549 -0.0888994 26.4362 0.266698L0.405327 20.9143C-0.0700188 21.3158 -0.137925 22.0385 0.258196 22.5317C0.654317 23.0135 1.36734 23.0823 1.854 22.6808L3.39321 21.3961V51.6219C3.39321 52.2528 3.90251 52.769 4.52499 52.769H49.796C50.4185 52.769 50.9278 52.2528 50.9278 51.6219V21.3961L52.467 22.6808C52.682 22.8529 52.931 22.9447 53.1913 22.9447C53.5196 22.9447 53.8364 22.807 54.0628 22.5317C54.4589 22.0385 54.391 21.3158 53.9157 20.9143ZM37.3465 34.4156H29.424V42.4452H24.8969V34.4156H16.9745V29.8272H24.8969V21.7976H29.424V29.8272H37.3465V34.4156Z" fill="#1E1E1E"/>
</svg>
