<svg width="45" height="50" viewBox="0 0 45 50" fill="none" xmlns="http://www.w3.org/2000/svg">
<path d="M2.26026 39.4171H2.21167L1.43435 26.8037H0V39.4171V40.2051V41.7815V48.8767H1.43435L1.84777 44.1468H8.84593L9.43096 48.8767H10.2497V43.7524V41.7824V39.4171H8.26183H2.26026ZM8.748 43.3587H1.916L2.05444 41.7825H8.55383L8.748 43.3587Z" fill="#1E1E1E"/>
<path d="M42.5252 39.4171H42.4766H36.4769H33.8984V41.7824V48.8776H35.3076L35.8927 44.1477H42.8909L43.3042 48.8776H44.9345V41.7824V40.2061V39.4178V26.8037H43.3035L42.5252 39.4171ZM42.8209 43.3587H35.989L36.184 41.7825H42.6834L42.8209 43.3587Z" fill="#1E1E1E"/>
<path d="M38.6274 33.9921V31.4399C38.6274 31.0561 38.3165 30.7451 37.9327 30.7451H7.00038C6.61665 30.7451 6.30566 31.0561 6.30566 31.4399V33.9921C6.30566 34.3759 6.61665 34.6869 7.00038 34.6869H15.7663V36.2631H18.9199V48.0001C18.9199 48.0308 18.9271 48.0585 18.9289 48.0883H15.7673V49.6647H20.4972H24.4389H29.1687V48.0883H26.007C26.0088 48.0586 26.0161 48.0299 26.0161 48.0001V36.2631H29.1696V34.6869H37.9355C38.3174 34.6869 38.6274 34.3759 38.6274 33.9921Z" fill="#1E1E1E"/>
<path d="M17.8128 0V11.2922H17.2835C16.6527 13.4006 15.7656 15.1872 15.7656 18.0567C15.7656 20.6144 16.7802 22.8117 17.0211 24.0851H19.7711C20.2618 22.6374 20.8405 20.5353 20.8405 18.0567C20.8405 15.1862 20.1557 13.3996 19.5248 11.2922H18.8661V0H17.8128Z" fill="#1E1E1E"/>
<path d="M25.1922 0V4.96712H24.716C24.0536 7.0755 23.3545 9.05616 23.3545 12.0695C23.3545 15.2455 24.3467 17.1094 24.5992 18.4448H27.3266C27.8434 16.9252 28.4788 14.673 28.4788 12.0713C28.4788 9.05795 27.7311 7.07719 27.0697 4.9689H26.2473V0H25.1922Z" fill="#1E1E1E"/>
</svg>
