<svg width="60" height="32" viewBox="0 0 60 32" fill="none" xmlns="http://www.w3.org/2000/svg">
<path d="M52.1057 8.74226H40.3356C37.2825 8.74226 34.2624 7.97333 31.6014 6.47659L25.5644 3.09171C21.3202 0.704187 16.5128 -0.329752 11.6611 0.0919314L8.4098 0.374412C5.1646 0.656194 2.6875 3.32806 2.6875 6.5855V11.9663H4.64215C6.36616 11.9663 7.79196 13.3199 7.79196 15.0439V22.8469H51.8513V15.0439C51.8513 13.3199 53.2772 11.9663 55.0011 11.9663H56.1371C55.6774 10.0855 54.0444 8.74226 52.1057 8.74226Z" fill="#1E1E1E"/>
<path d="M51.8503 27.0107H7.79102V31.0406H51.8503V27.0107Z" fill="#1E1E1E"/>
<path d="M4.64119 14.6528H0.402346C0.159704 14.6528 0 14.8011 0 15.0439V30.9065H5.10446V15.0438C5.10446 14.8012 4.88371 14.6528 4.64119 14.6528Z" fill="#1E1E1E"/>
<path d="M59.2392 14.6528H55.0004C54.7577 14.6528 54.5371 14.8011 54.5371 15.0439V30.9065H59.6416V15.0438C59.6416 14.8012 59.4819 14.6528 59.2392 14.6528Z" fill="#1E1E1E"/>
</svg>
