<svg width="55" height="45" viewBox="0 0 55 45" fill="none" xmlns="http://www.w3.org/2000/svg">
<path d="M50.4948 44.4257C47.9961 45.695 44.6645 44.8488 42.9987 42.3102L38.4177 36.3867H15.9293L11.3483 42.3102C9.26606 45.2719 5.51799 45.695 2.60283 43.5795C0.520565 41.8871 -0.312339 39.3484 0.104113 37.2329L3.01928 21.5782C3.85218 16.501 8.43316 12.693 13.4306 12.693H25.0913V6.34652C25.0913 2.96171 27.59 0 30.9216 0H43.8316C45.081 0 45.9139 0.846203 45.9139 2.11551C45.9139 3.38481 45.081 4.23102 43.8316 4.23102H31.338C30.0887 4.23102 29.2558 5.07722 29.2558 5.92342V6.34652V12.693H40.9164C45.9139 12.693 50.4948 16.501 51.3277 21.5782L54.2429 37.2329C54.6594 40.1947 53.41 43.1564 50.4948 44.4257ZM20.9267 23.2706C20.9267 19.8858 18.0116 16.9241 14.6799 16.9241C11.3483 16.9241 8.43316 19.8858 8.43316 23.2706C8.43316 26.6554 11.3483 29.6171 14.6799 29.6171C18.0116 29.6171 20.9267 26.6554 20.9267 23.2706ZM45.9139 23.2706C45.9139 22.0013 45.081 21.1551 43.8316 21.1551H41.7493V19.0396C41.7493 17.7703 40.9164 16.9241 39.6671 16.9241C38.4177 16.9241 37.5848 17.7703 37.5848 19.0396V21.1551H35.5026C34.2532 21.1551 33.4203 22.0013 33.4203 23.2706C33.4203 24.5399 34.2532 25.3861 35.5026 25.3861H37.5848V27.5016C37.5848 28.7709 38.4177 29.6171 39.6671 29.6171C40.9164 29.6171 41.7493 28.7709 41.7493 27.5016V25.3861H43.8316C45.081 25.3861 45.9139 24.5399 45.9139 23.2706Z" fill="#1E1E1E"/>
</svg>
