<svg width="55" height="39" viewBox="0 0 55 39" fill="none" xmlns="http://www.w3.org/2000/svg">
<path d="M0 27.7369V29.3686C0 31.135 1.43703 32.572 3.20334 32.572H11.5655L11.1902 35.5351H8.05521V38.8006H10.7765H26.396H29.1174V35.535H25.9824L25.6071 32.5718H33.9692C35.7356 32.5718 37.1725 31.1348 37.1725 29.3685V27.7368L0 27.7369Z" fill="#1E1E1E"/>
<path d="M19.5854 9.30722V2.48535H3.20334C1.43703 2.48535 0 3.9225 0 5.68881V23.6005V24.4713H37.1725V23.6005V9.30722H19.5854ZM25.835 22.8763H11.3376V19.6107H25.835V22.8763ZM25.835 18.5221H11.3376V15.2564H25.835V18.5221ZM25.835 14.1679H11.3376V10.9023H25.835V14.1679Z" fill="#1E1E1E"/>
<path d="M52.4971 35.5351V35.535V34.2174C52.4971 32.508 51.1065 31.1174 49.3971 31.1174H47.0579L43.2927 1.38797H36.2827V0H22.8516V6.04156H36.2828V4.6537H40.4148L43.7662 31.1175H40.8418C39.1324 31.1175 37.7417 32.5081 37.7417 34.2176V35.5351H35.2693V38.8007H37.7416H52.4971H54.9694V35.5351H52.4971Z" fill="#1E1E1E"/>
</svg>
