<svg width="47" height="56" viewBox="0 0 47 56" fill="none" xmlns="http://www.w3.org/2000/svg">
<g clip-path="url(#clip0_1753_1096)">
<path d="M23.2828 39.929H0.660156V39.2188H23.2828V39.929Z" fill="#2D2D2D"/>
<path d="M23.2828 39.2186H0.660156V31.9521H23.2828V39.2186Z" fill="#1E1E1E"/>
<path d="M23.2828 39.2184H0.660156V38.5127H23.2828V39.2184Z" fill="#1E1E1E"/>
<path d="M23.2828 47.901H0.660156V47.1953H23.2828V47.901Z" fill="#2D2D2D"/>
<path d="M23.2828 47.1951H0.660156V39.9287H23.2828V47.1951Z" fill="#1E1E1E"/>
<path d="M23.2828 47.1951H0.660156V46.4849H23.2828V47.1951Z" fill="#1E1E1E"/>
<path d="M23.2828 55.8732H0.660156V55.1675H23.2828V55.8732Z" fill="#2D2D2D"/>
<path d="M23.2828 55.1673H0.660156V47.9009H23.2828V55.1673Z" fill="#1E1E1E"/>
<path d="M23.2828 55.1676H0.660156V54.4619H23.2828V55.1676Z" fill="#1E1E1E"/>
<path d="M9.30385 34.6704H14.6386C14.7521 34.6704 14.8609 34.7155 14.9412 34.7957C15.0214 34.876 15.0665 34.9849 15.0665 35.0984V35.1621C15.0665 35.2756 15.0214 35.3845 14.9412 35.4647C14.8609 35.545 14.7521 35.5901 14.6386 35.5901H9.30385C9.24766 35.5901 9.19201 35.579 9.1401 35.5575C9.08819 35.536 9.04103 35.5045 9.0013 35.4647C8.96157 35.425 8.93004 35.3778 8.90854 35.3259C8.88703 35.274 8.87598 35.2183 8.87598 35.1621V35.0984C8.87598 35.0422 8.88703 34.9865 8.90854 34.9346C8.93004 34.8827 8.96157 34.8355 9.0013 34.7957C9.04103 34.756 9.08819 34.7245 9.1401 34.703C9.19201 34.6815 9.24766 34.6704 9.30385 34.6704Z" fill="#2D2D2D"/>
<path d="M9.30385 42.6426H14.6386C14.75 42.6491 14.8551 42.6963 14.934 42.7752C15.0128 42.8541 15.06 42.9592 15.0665 43.0706V43.1343C15.0665 43.2478 15.0214 43.3567 14.9412 43.4369C14.8609 43.5172 14.7521 43.5623 14.6386 43.5623H9.30385C9.24766 43.5623 9.19201 43.5512 9.1401 43.5297C9.08819 43.5082 9.04103 43.4767 9.0013 43.4369C8.96157 43.3972 8.93004 43.35 8.90854 43.2981C8.88703 43.2461 8.87598 43.1905 8.87598 43.1343V43.0706C8.88248 42.9592 8.92965 42.8541 9.00853 42.7752C9.0874 42.6963 9.19249 42.6491 9.30385 42.6426Z" fill="#2D2D2D"/>
<path d="M9.30385 50.6191H14.6386C14.7521 50.6191 14.8609 50.6642 14.9412 50.7445C15.0214 50.8247 15.0665 50.9336 15.0665 51.0471V51.1063C15.0665 51.2198 15.0214 51.3287 14.9412 51.4089C14.8609 51.4892 14.7521 51.5343 14.6386 51.5343H9.30385C9.24766 51.5343 9.19201 51.5232 9.1401 51.5017C9.08819 51.4802 9.04103 51.4487 9.0013 51.4089C8.96157 51.3692 8.93004 51.322 8.90854 51.2701C8.88703 51.2181 8.87598 51.1625 8.87598 51.1063V51.0471C8.87598 50.9909 8.88703 50.9353 8.90854 50.8834C8.93004 50.8314 8.96157 50.7842 9.0013 50.7445C9.04103 50.7047 9.08819 50.6732 9.1401 50.6517C9.19201 50.6302 9.24766 50.6191 9.30385 50.6191Z" fill="#2D2D2D"/>
<path d="M45.9004 55.873H23.2822V31.9521H45.9004V55.873Z" fill="#1E1E1E"/>
<path d="M23.2554 30.8047H0V31.952H23.2554V30.8047Z" fill="#2D2D2D"/>
<path d="M46.5558 30.8047H23.2549V31.952H46.5558V30.8047Z" fill="#1E1E1E"/>
<path d="M39.638 42.4376V48.3062C39.638 48.3204 39.6351 48.3343 39.6296 48.3474C39.624 48.3604 39.6159 48.3721 39.6057 48.3819C39.5955 48.3917 39.5834 48.3993 39.5702 48.4043C39.5569 48.4093 39.5429 48.4116 39.5287 48.4109H29.8924C29.8783 48.4116 29.8642 48.4093 29.851 48.4043C29.8378 48.3993 29.8257 48.3917 29.8155 48.3819C29.8052 48.3721 29.7971 48.3604 29.7916 48.3474C29.786 48.3343 29.7832 48.3204 29.7832 48.3062V42.4376C29.7832 42.4081 29.7945 42.3799 29.8149 42.3586C29.8353 42.3374 29.8631 42.3249 29.8924 42.3237H39.5196C39.549 42.3249 39.5768 42.3374 39.5972 42.3586C39.6175 42.3799 39.6289 42.4081 39.6289 42.4376H39.638Z" fill="#1E1E1E"/>
<path d="M39.6377 48.3017C39.6377 48.3307 39.6262 48.3585 39.6057 48.379C39.5852 48.3995 39.5574 48.411 39.5284 48.411H29.8922C29.8632 48.411 29.8354 48.3995 29.8149 48.379C29.7944 48.3585 29.7829 48.3307 29.7829 48.3017V42.4376C29.7829 42.4086 29.7944 42.3808 29.8149 42.3603C29.8354 42.3399 29.8632 42.3283 29.8922 42.3283H39.5193C39.5483 42.3283 39.5761 42.3399 39.5966 42.3603C39.617 42.3808 39.6286 42.4086 39.6286 42.4376V48.3017H39.6377ZM39.5284 41.0171H29.8922C29.7043 41.0165 29.5182 41.0531 29.3445 41.1247C29.1708 41.1963 29.013 41.3016 28.8802 41.4345C28.7473 41.5674 28.6421 41.7252 28.5705 41.8989C28.4989 42.0726 28.4623 42.2588 28.4629 42.4467V48.3108C28.4623 48.4987 28.4989 48.6849 28.5705 48.8586C28.6421 49.0323 28.7473 49.1902 28.8802 49.3231C29.013 49.4559 29.1708 49.5612 29.3445 49.6328C29.5182 49.7045 29.7043 49.741 29.8922 49.7404H39.5193C39.8984 49.7404 40.2619 49.5898 40.53 49.3217C40.798 49.0536 40.9486 48.69 40.9486 48.3108V42.4467C40.9486 42.0676 40.798 41.7039 40.53 41.4358C40.2619 41.1677 39.8984 41.0171 39.5193 41.0171H39.5284Z" fill="#2D2D2D"/>
<path d="M45.9004 35.5854H23.2822V31.9521H45.9004V35.5854Z" fill="#2D2D2D"/>
<path d="M27.2974 33.7688C27.2992 33.9918 27.2347 34.2103 27.112 34.3965C26.9894 34.5827 26.8142 34.7283 26.6086 34.8146C26.4031 34.901 26.1765 34.9243 25.9577 34.8816C25.7389 34.8389 25.5377 34.732 25.3797 34.5747C25.2218 34.4173 25.1142 34.2165 25.0705 33.9978C25.0269 33.7791 25.0493 33.5524 25.1348 33.3465C25.2204 33.1406 25.3652 32.9647 25.5508 32.8413C25.7365 32.7178 25.9547 32.6524 26.1776 32.6533C26.4735 32.6545 26.7569 32.7723 26.9665 32.9811C27.1761 33.1899 27.295 33.4729 27.2974 33.7688Z" fill="#1E1E1E"/>
<path d="M31.0022 33.7688C31.0031 33.9905 30.9382 34.2075 30.8157 34.3922C30.6932 34.577 30.5187 34.7213 30.3141 34.8068C30.1096 34.8922 29.8843 34.9151 29.6668 34.8724C29.4493 34.8297 29.2493 34.7234 29.0923 34.5669C28.9352 34.4104 28.8281 34.2109 28.7845 33.9935C28.741 33.7761 28.7629 33.5507 28.8475 33.3458C28.9321 33.1408 29.0756 32.9657 29.2599 32.8424C29.4441 32.7191 29.6608 32.6533 29.8824 32.6533C30.1786 32.6533 30.4628 32.7707 30.6726 32.9797C30.8825 33.1888 31.001 33.4725 31.0022 33.7688Z" fill="#1E1E1E"/>
<path d="M34.7131 33.7688C34.714 33.9905 34.6491 34.2075 34.5266 34.3922C34.4041 34.577 34.2296 34.7213 34.025 34.8068C33.8205 34.8922 33.5952 34.9151 33.3777 34.8724C33.1602 34.8297 32.9603 34.7234 32.8032 34.5669C32.6462 34.4104 32.5391 34.2109 32.4955 33.9935C32.4519 33.7761 32.4738 33.5507 32.5584 33.3458C32.643 33.1408 32.7865 32.9657 32.9708 32.8424C33.155 32.7191 33.3717 32.6533 33.5934 32.6533C33.8896 32.6533 34.1737 32.7707 34.3835 32.9797C34.5934 33.1888 34.7119 33.4725 34.7131 33.7688Z" fill="#1E1E1E"/>
<path d="M38.4224 33.7688C38.4242 33.9918 38.3597 34.2103 38.237 34.3965C38.1144 34.5827 37.9392 34.7283 37.7336 34.8146C37.5281 34.901 37.3015 34.9243 37.0827 34.8816C36.8639 34.8389 36.6627 34.732 36.5047 34.5747C36.3468 34.4173 36.2392 34.2165 36.1955 33.9978C36.1519 33.7791 36.1743 33.5524 36.2598 33.3465C36.3454 33.1406 36.4902 32.9647 36.6758 32.8413C36.8615 32.7178 37.0797 32.6524 37.3026 32.6533C37.5985 32.6545 37.8819 32.7723 38.0915 32.9811C38.3011 33.1899 38.42 33.4729 38.4224 33.7688Z" fill="#1E1E1E"/>
<path d="M43.4517 33.7688C43.4535 33.9916 43.3891 34.2099 43.2667 34.396C43.1442 34.5821 42.9693 34.7277 42.764 34.8142C42.5587 34.9007 42.3324 34.9243 42.1137 34.8819C41.895 34.8396 41.6938 34.7332 41.5357 34.5763C41.3775 34.4194 41.2695 34.219 41.2254 34.0006C41.1813 33.7822 41.203 33.5557 41.2878 33.3496C41.3727 33.1436 41.5168 32.9675 41.7018 32.8435C41.8869 32.7195 42.1046 32.6533 42.3274 32.6533C42.624 32.6533 42.9086 32.7705 43.1192 32.9794C43.3298 33.1884 43.4493 33.4721 43.4517 33.7688Z" fill="#1E1E1E"/>
<path d="M20.4558 30.8231H7.57859C7.31621 30.8219 7.06498 30.7168 6.87987 30.5308C6.69476 30.3448 6.59082 30.0931 6.59082 29.8306V22.4367C6.59082 22.1747 6.69491 21.9234 6.88014 21.7381C7.06538 21.5528 7.31662 21.4487 7.57859 21.4487H20.4558C20.7181 21.4487 20.9699 21.5527 21.1558 21.7378C21.3418 21.923 21.4469 22.1743 21.4481 22.4367V29.8306C21.4469 30.0935 21.3419 30.3452 21.1561 30.5311C20.9703 30.717 20.7186 30.8219 20.4558 30.8231Z" fill="#1E1E1E"/>
<path d="M43.0244 0V0.965212H38.691V14.0775H30.7298V0.965212H26.3965V0H43.0244Z" fill="#1E1E1E"/>
<path d="M28.1674 29.7214C27.5756 29.0612 29.7241 29.2205 27.1113 26.8576C25.1723 25.1002 25.9415 23.4065 26.8473 22.2045C26.9162 22.1235 27.0112 22.069 27.116 22.0507C27.2208 22.0324 27.3286 22.0514 27.4209 22.1044C27.4635 22.1212 27.5015 22.1479 27.5319 22.1823C27.5622 22.2166 27.5841 22.2576 27.5956 22.302C27.6071 22.3463 27.608 22.3928 27.5982 22.4375C27.5884 22.4823 27.5682 22.5242 27.5392 22.5597C26.3785 24.1076 26.4377 25.2914 27.7122 26.4296C28.7773 27.3948 29.8425 28.7789 28.8001 29.7623C28.7117 29.8408 28.5963 29.8819 28.4782 29.8768C28.3601 29.8717 28.2487 29.8208 28.1674 29.735V29.7214Z" fill="#2D2D2D"/>
<path d="M31.6718 29.7211C31.0846 29.0609 33.2286 29.2202 30.6158 26.8573C28.6767 25.0999 29.446 23.4062 30.3563 22.2043C30.4249 22.1243 30.5191 22.0706 30.6229 22.0523C30.7267 22.034 30.8335 22.0523 30.9253 22.1041C30.9683 22.1205 31.0068 22.1468 31.0376 22.1809C31.0685 22.215 31.0908 22.256 31.1028 22.3004C31.1148 22.3448 31.1161 22.3914 31.1066 22.4364C31.0971 22.4814 31.0771 22.5236 31.0482 22.5594C29.8875 24.1073 29.9421 25.2911 31.2212 26.4293C32.2863 27.3945 33.3515 28.7786 32.3045 29.762C32.2162 29.8405 32.1007 29.8816 31.9826 29.8765C31.8646 29.8714 31.7531 29.8205 31.6718 29.7347V29.7211Z" fill="#2D2D2D"/>
<path d="M35.181 29.7211C34.5893 29.0609 36.7378 29.2202 34.125 26.8573C32.1859 25.0999 32.9552 23.4062 33.861 22.2043C33.9296 22.1243 34.0238 22.0706 34.1276 22.0523C34.2313 22.034 34.3382 22.0523 34.43 22.1041C34.473 22.1205 34.5114 22.1468 34.5423 22.1809C34.5731 22.215 34.5955 22.256 34.6075 22.3004C34.6194 22.3448 34.6207 22.3914 34.6113 22.4364C34.6018 22.4814 34.5818 22.5236 34.5529 22.5594C33.3922 24.1073 33.4513 25.2911 34.7258 26.4293C35.791 27.3945 36.8607 28.7786 35.8137 29.762C35.7254 29.8405 35.6099 29.8816 35.4918 29.8765C35.3738 29.8714 35.2623 29.8205 35.181 29.7347V29.7211Z" fill="#2D2D2D"/>
<path d="M38.6865 29.7211C38.0993 29.0609 40.2432 29.2202 37.6304 26.8573C35.6913 25.0999 36.4606 23.4062 37.371 22.2043C37.4396 22.1243 37.5338 22.0706 37.6375 22.0523C37.7413 22.034 37.8482 22.0523 37.94 22.1041C37.9833 22.1201 38.0221 22.1464 38.053 22.1807C38.084 22.2149 38.1062 22.2561 38.1178 22.3008C38.1295 22.3455 38.1301 22.3924 38.1198 22.4374C38.1094 22.4824 38.0883 22.5243 38.0583 22.5594C36.9021 24.1073 36.9568 25.2911 38.2358 26.4293C39.301 27.3945 40.3661 28.7786 39.3192 29.762C39.2308 29.8405 39.1154 29.8816 38.9973 29.8765C38.8792 29.8714 38.7677 29.8205 38.6865 29.7347V29.7211Z" fill="#2D2D2D"/>
<path d="M42.1959 29.7211C41.6042 29.0609 43.7481 29.2202 41.1353 26.8573C39.1962 25.0999 39.9655 23.4062 40.8759 22.2043C40.9445 22.1243 41.0387 22.0706 41.1424 22.0523C41.2462 22.034 41.3531 22.0523 41.4448 22.1041C41.4878 22.1205 41.5263 22.1468 41.5572 22.1809C41.588 22.215 41.6103 22.256 41.6223 22.3004C41.6343 22.3448 41.6356 22.3914 41.6261 22.4364C41.6166 22.4814 41.5966 22.5236 41.5678 22.5594C40.407 24.1073 40.4662 25.2911 41.7407 26.4293C42.8059 27.3945 43.871 28.7786 42.8286 29.762C42.7403 29.8405 42.6248 29.8816 42.5067 29.8765C42.3887 29.8714 42.2772 29.8205 42.1959 29.7347V29.7211Z" fill="#2D2D2D"/>
<path d="M17.5833 29.4935H8.33398V22.7734H17.5833V29.4935Z" fill="#2D2D2D"/>
<path d="M20.2789 29.4935H18.2988V22.7734H20.2789V29.4935Z" fill="#2D2D2D"/>
<path d="M19.5911 28.5195C19.582 28.5934 19.5462 28.6614 19.4905 28.7108C19.4347 28.7601 19.3628 28.7873 19.2884 28.7873C19.2139 28.7873 19.1421 28.7601 19.0863 28.7108C19.0305 28.6614 18.9948 28.5934 18.9857 28.5195C18.9804 28.4766 18.9843 28.4331 18.9971 28.3919C19.0099 28.3506 19.0313 28.3125 19.0599 28.2802C19.0886 28.2478 19.1237 28.2219 19.1631 28.2042C19.2025 28.1864 19.2452 28.1772 19.2884 28.1772C19.3316 28.1772 19.3743 28.1864 19.4136 28.2042C19.453 28.2219 19.4882 28.2478 19.5168 28.2802C19.5454 28.3125 19.5668 28.3506 19.5796 28.3919C19.5924 28.4331 19.5963 28.4766 19.5911 28.5195Z" fill="#1E1E1E"/>
<path d="M19.5914 26.7937C19.5923 26.8544 19.575 26.914 19.5419 26.9649C19.5087 27.0157 19.4611 27.0555 19.4052 27.0791C19.3493 27.1028 19.2876 27.1092 19.228 27.0976C19.1685 27.086 19.1137 27.0568 19.0708 27.0139C19.0278 26.971 18.9987 26.9162 18.9871 26.8566C18.9755 26.797 18.9819 26.7353 19.0055 26.6794C19.0292 26.6235 19.069 26.5759 19.1198 26.5427C19.1707 26.5095 19.2302 26.4923 19.2909 26.4932C19.3703 26.4944 19.446 26.5264 19.5021 26.5825C19.5582 26.6386 19.5902 26.7143 19.5914 26.7937Z" fill="#1E1E1E"/>
<path d="M19.5911 25.0727C19.582 25.1466 19.5462 25.2146 19.4905 25.264C19.4347 25.3133 19.3628 25.3406 19.2884 25.3406C19.2139 25.3406 19.1421 25.3133 19.0863 25.264C19.0305 25.2146 18.9948 25.1466 18.9857 25.0727C18.9804 25.0298 18.9843 24.9863 18.9971 24.9451C19.0099 24.9038 19.0313 24.8658 19.0599 24.8334C19.0886 24.801 19.1237 24.7751 19.1631 24.7574C19.2025 24.7397 19.2452 24.7305 19.2884 24.7305C19.3316 24.7305 19.3743 24.7397 19.4136 24.7574C19.453 24.7751 19.4882 24.801 19.5168 24.8334C19.5454 24.8658 19.5668 24.9038 19.5796 24.9451C19.5924 24.9863 19.5963 25.0298 19.5911 25.0727Z" fill="#1E1E1E"/>
<path d="M14.0192 22.7734L8.33398 27.5267V29.4935H12.9587L16.5364 22.7734H14.0192Z" fill="#1E1E1E"/>
<path d="M37.3165 42.3237L31.5721 48.4109H29.8924C29.8783 48.4116 29.8642 48.4093 29.851 48.4043C29.8378 48.3993 29.8257 48.3917 29.8155 48.3819C29.8052 48.3721 29.7971 48.3604 29.7916 48.3474C29.786 48.3343 29.7832 48.3204 29.7832 48.3062V46.8447L34.7083 42.3237H37.3165Z" fill="#2D2D2D"/>
<path d="M42.7417 17.0689H26.6782C26.6246 17.0707 26.5717 17.0572 26.5255 17.0299C26.4793 17.0027 26.4419 16.9628 26.4175 16.9151C26.3932 16.8673 26.3829 16.8136 26.388 16.7602C26.393 16.7068 26.4132 16.656 26.4461 16.6137L30.7293 10.4536H38.6905L42.9738 16.6137C43.0067 16.656 43.0268 16.7068 43.0319 16.7602C43.0369 16.8136 43.0267 16.8673 43.0024 16.9151C42.978 16.9628 42.9405 17.0027 42.8944 17.0299C42.8482 17.0572 42.7953 17.0707 42.7417 17.0689Z" fill="#1E1E1E"/>
<path d="M38.6907 9.5791H30.7295V10.4624H38.6907V9.5791Z" fill="#2D2D2D"/>
<path d="M23.9878 31.9521V55.873H23.2822V31.9521H23.9878Z" fill="#2D2D2D"/>
</g>
<defs>
<clipPath id="clip0_1753_1096">
<rect width="46.5609" height="55.873" fill="white"/>
</clipPath>
</defs>
</svg>
