<svg width="50" height="47" viewBox="0 0 50 47" fill="none" xmlns="http://www.w3.org/2000/svg">
<g clip-path="url(#clip0_1753_1028)">
<path d="M15.3002 7.7644H6.15275C6.05557 7.76374 5.95964 7.7422 5.87133 7.70126C5.78301 7.66031 5.70433 7.60088 5.64051 7.52689C5.57669 7.45291 5.52919 7.36607 5.50115 7.27214C5.47312 7.17821 5.46519 7.07933 5.4779 6.98207C5.58225 5.87215 6.00414 4.81684 6.69219 3.94468C7.38024 3.07252 8.30473 2.42118 9.35303 2.07002C9.3534 1.72214 9.46633 1.38391 9.67464 1.10676C8.98942 0.864769 8.25679 0.791787 7.53793 0.893908C6.81907 0.99603 6.13485 1.27028 5.54242 1.69378C4.94999 2.11727 4.46656 2.67771 4.13248 3.32827C3.7984 3.97884 3.62339 4.70066 3.62206 5.43343V44.4905H4.95067C5.33569 44.4919 5.70446 44.6472 5.97621 44.9225C6.24797 45.1978 6.40056 45.5707 6.40055 45.9593V46.5713H0V45.9699C-2.52714e-06 45.5813 0.152584 45.2085 0.424339 44.9332C0.696093 44.6579 1.06486 44.5025 1.44988 44.5011H2.7785V5.43343C2.78105 4.50779 3.01715 3.59806 3.46452 2.79004C3.91189 1.98202 4.55579 1.30234 5.33549 0.815107C6.11519 0.327871 7.005 0.0491125 7.92099 0.00516859C8.83698 -0.0387753 9.74896 0.153527 10.5709 0.563924H10.7291C11.1081 0.584598 11.464 0.754466 11.7203 1.03706C11.9766 1.31965 12.1129 1.69244 12.0999 2.07534C13.1488 2.42625 14.0741 3.07738 14.763 3.94949C15.452 4.8216 15.8749 5.87706 15.9803 6.9874C15.9914 7.08454 15.9821 7.18295 15.9531 7.27623C15.924 7.36951 15.8759 7.4556 15.8117 7.52887C15.7476 7.60215 15.6689 7.66097 15.5808 7.70155C15.4926 7.74213 15.397 7.76355 15.3002 7.7644Z" fill="#1E1E1E"/>
<path d="M12.0215 8.25391L14.2253 14.4645L16.5135 13.0489C13.6823 10.0261 14.7683 11.1916 12.0215 8.25923V8.25391Z" fill="#1E1E1E"/>
<path d="M9.41152 8.25391L7.2077 14.4379L4.9248 13.0436L9.41152 8.25391Z" fill="#1E1E1E"/>
<path d="M10.7193 8.65869L12.4539 14.4382H8.97949L10.7193 8.65869Z" fill="#1E1E1E"/>
<path d="M30.2364 33.98V43.7775H14.9467V46.5715H13.6234V43.7882H11.815C11.7306 43.7882 11.6621 43.6551 11.6621 43.4848V33.9906L30.2364 33.98Z" fill="#1E1E1E"/>
<path d="M48.8114 33.98V43.4742C48.8114 43.6445 48.7428 43.7775 48.6585 43.7775H46.8395V46.5715H45.5162V43.7882H30.2266V33.9906L48.8114 33.98Z" fill="#1E1E1E"/>
<path d="M23.019 38.1844H18.875V37.4287H23.019V38.1844Z" fill="#2D2D2D"/>
<path d="M41.5928 38.1844H37.4541V37.4287H41.5928V38.1844Z" fill="#2D2D2D"/>
<path d="M30.2311 35.1401H11.6621V33.98H30.2311V35.1401Z" fill="#2D2D2D"/>
<path d="M48.812 35.1401H30.2324V33.98H48.812V35.1401Z" fill="#2D2D2D"/>
<path d="M30.4843 43.7775H29.9834V33.98H30.4843V43.7775Z" fill="#2D2D2D"/>
<path d="M41.1027 14.869V28.8921C41.1027 28.9555 41.0902 29.0182 41.0661 29.0766C41.0419 29.1351 41.0065 29.1881 40.9618 29.2327C40.9172 29.2772 40.8643 29.3124 40.8061 29.3362C40.7479 29.3599 40.6857 29.3718 40.6229 29.3711H19.887C19.8243 29.3718 19.762 29.3599 19.7038 29.3362C19.6456 29.3124 19.5927 29.2772 19.5481 29.2327C19.5034 29.1881 19.468 29.1351 19.4438 29.0766C19.4197 29.0182 19.4072 28.9555 19.4072 28.8921V14.869C19.4072 14.7406 19.4578 14.6174 19.5478 14.5266C19.6377 14.4358 19.7598 14.3848 19.887 14.3848H40.6229C40.7501 14.3848 40.8722 14.4358 40.9622 14.5266C41.0521 14.6174 41.1027 14.7406 41.1027 14.869Z" fill="#1E1E1E"/>
<path d="M41.1026 28.8921C41.1026 29.0205 41.0521 29.1437 40.9621 29.2345C40.8721 29.3253 40.7501 29.3763 40.6228 29.3763H19.8869C19.7597 29.3763 19.6377 29.3253 19.5477 29.2345C19.4577 29.1437 19.4072 29.0205 19.4072 28.8921V14.869C19.4072 14.7406 19.4577 14.6174 19.5477 14.5266C19.6377 14.4358 19.7597 14.3847 19.8869 14.3847H40.6228C40.7501 14.3847 40.8721 14.4358 40.9621 14.5266C41.0521 14.6174 41.1026 14.7406 41.1026 14.869V28.8921ZM40.6228 13.2192H19.8869C19.4544 13.2206 19.04 13.3951 18.7347 13.7043C18.4293 14.0136 18.2578 14.4324 18.2578 14.869V28.8921C18.2578 29.3282 18.4295 29.7465 18.735 30.0549C19.0405 30.3633 19.4549 30.5365 19.8869 30.5365H40.6228C40.8372 30.5372 41.0496 30.4952 41.2479 30.4129C41.4462 30.3306 41.6264 30.2095 41.7782 30.0568C41.9301 29.904 42.0505 29.7225 42.1327 29.5226C42.2149 29.3228 42.2572 29.1085 42.2572 28.8921V14.869C42.2572 14.4315 42.0851 14.0118 41.7785 13.7024C41.472 13.393 41.0563 13.2192 40.6228 13.2192Z" fill="#2D2D2D"/>
<path d="M33.4631 14.3848H35.6564L27.5951 29.3711H19.887C19.8243 29.3718 19.762 29.3599 19.7038 29.3362C19.6456 29.3124 19.5927 29.2772 19.5481 29.2327C19.5034 29.1881 19.468 29.1351 19.4438 29.0766C19.4197 29.0182 19.4072 28.9555 19.4072 28.8921V26.162L33.4631 14.3848Z" fill="#2D2D2D"/>
<path d="M38.4245 29.9884C38.4245 30.0579 38.404 30.1258 38.3658 30.1836C38.3276 30.2413 38.2732 30.2863 38.2096 30.3129C38.1461 30.3395 38.0761 30.3465 38.0086 30.3329C37.9411 30.3194 37.8791 30.2859 37.8304 30.2368C37.7818 30.1876 37.7486 30.1251 37.7352 30.0569C37.7218 29.9888 37.7287 29.9182 37.755 29.854C37.7813 29.7898 37.8259 29.735 37.8832 29.6964C37.9404 29.6578 38.0077 29.6372 38.0765 29.6372C38.1222 29.6372 38.1674 29.6463 38.2096 29.6639C38.2519 29.6816 38.2902 29.7074 38.3225 29.74C38.3549 29.7727 38.3805 29.8114 38.398 29.854C38.4155 29.8966 38.4245 29.9423 38.4245 29.9884Z" fill="#2D2D2D"/>
<path d="M32.4092 32.378H28.1387L29.0613 30.5366H31.4866C32.1509 31.8618 31.8767 31.3242 32.4092 32.378Z" fill="#2D2D2D"/>
<path d="M49.6655 33.1337V33.9798H10.793V33.1337H27.2794V32.841C27.2794 32.7802 27.2913 32.72 27.3143 32.6638C27.3374 32.6076 27.3712 32.5566 27.4137 32.5136C27.4563 32.4706 27.5069 32.4365 27.5626 32.4132C27.6182 32.39 27.6779 32.378 27.7381 32.378H33.0104C33.0711 32.3773 33.1313 32.3887 33.1875 32.4117C33.2438 32.4346 33.295 32.4687 33.3381 32.5117C33.3813 32.5548 33.4155 32.606 33.4389 32.6626C33.4623 32.7191 33.4743 32.7797 33.4743 32.841V33.1337H49.6655Z" fill="#1E1E1E"/>
<path d="M31.9602 31.4573H28.6123L29.0763 30.5366H31.5015L31.9602 31.4573Z" fill="#1E1E1E"/>
</g>
<defs>
<clipPath id="clip0_1753_1028">
<rect width="49.6649" height="46.5609" fill="white"/>
</clipPath>
</defs>
</svg>
