<svg width="50" height="47" viewBox="0 0 50 47" fill="none" xmlns="http://www.w3.org/2000/svg">
<path d="M17.2021 24.2515H19.8873V28.056H17.2021V24.2515Z" fill="#1E1E1E"/>
<path d="M20.277 28.4457H16.8125V23.8618H20.277V28.4457ZM17.5918 27.6664H19.4977V24.6412H17.5918V27.6664Z" fill="#1E1E1E"/>
<path d="M30.0117 24.2515H32.6969V28.056H30.0117V24.2515Z" fill="#1E1E1E"/>
<path d="M33.0866 28.4457H29.6221V23.8618H33.0866V28.4457ZM30.4014 27.6664H32.3072V24.6412H30.4014V27.6664Z" fill="#1E1E1E"/>
<path d="M34.6451 40.0084H26.129V31.2656H23.5927V40.0084H15.3884C15.2254 40.0084 15.0908 40.143 15.0908 40.3059V41.7158C15.0908 41.8788 15.2254 42.0134 15.3884 42.0134H34.6451C34.808 42.0134 34.9426 41.8788 34.9426 41.7158V40.3059C34.9426 40.143 34.808 40.0084 34.6451 40.0084Z" fill="#1E1E1E"/>
<path d="M34.6451 42.4031H15.3884C15.0058 42.4031 14.7012 42.0913 14.7012 41.7158V40.3059C14.7012 39.9234 15.0129 39.6187 15.3884 39.6187H23.2101V30.876H26.5258V39.6187H34.6451C35.0277 39.6187 35.3323 39.9304 35.3323 40.3059V41.7158C35.3323 42.0913 35.0206 42.4031 34.6451 42.4031ZM15.4734 41.6237H34.5459V40.398H25.7394V31.6553H23.9823V40.398H15.4734V41.6237Z" fill="#1E1E1E"/>
<path d="M3.72656 16.3374H45.9311V24.5346H3.72656V16.3374Z" fill="#1E1E1E"/>
<path d="M46.3289 24.9243H3.33789V15.9478H46.3218V24.9243H46.3289ZM4.11723 24.1449H45.5424V16.7271H4.11723V24.1449Z" fill="#1E1E1E"/>
<path d="M1.88477 17.209H5.82395V45.6901H1.88477V17.209Z" fill="#1E1E1E"/>
<path d="M6.22047 46.0798H1.50195V16.8193H6.22047V46.0798ZM2.2742 45.3005H5.43405V17.5987H2.2742V45.3005Z" fill="#1E1E1E"/>
<path d="M44.124 17.209H47.9782V45.6901H44.124V17.209Z" fill="#1E1E1E"/>
<path d="M48.3679 46.0798H43.7344V16.8193H48.3679V46.0798ZM44.5137 45.3005H47.5885V17.5987H44.5137V45.3005Z" fill="#1E1E1E"/>
<path d="M0.389648 13.5747H49.2681V17.9177H0.389648V13.5747Z" fill="#1E1E1E"/>
<path d="M49.6649 18.3074H0V13.1851H49.6578V18.3074H49.6649ZM0.779335 17.5281H48.8785V13.9644H0.779335V17.5281Z" fill="#1E1E1E"/>
<path d="M35.4602 24.5559H14.4252L13.0791 2.95413C13.0011 1.55841 14.1064 0.382324 15.5092 0.382324H34.3833C35.779 0.382324 36.8913 1.55841 36.8134 2.95413L35.4602 24.5559Z" fill="#1E1E1E"/>
<path d="M35.821 24.9458H14.0563L12.6889 2.98273C12.6464 2.19631 12.9156 1.4524 13.4541 0.885608C13.9925 0.318819 14.7223 0 15.5016 0H34.3757C35.1621 0 35.8848 0.311734 36.4232 0.885608C36.9617 1.4524 37.2309 2.20339 37.1884 2.98273L35.821 24.9458ZM14.7861 24.1665H35.0913L36.4161 2.93313C36.4516 2.36635 36.2532 1.8279 35.8635 1.41697C35.4739 1.00605 34.9496 0.779335 34.3828 0.779335H15.5016C14.9348 0.779335 14.4106 1.00605 14.0209 1.41697C13.6312 1.8279 13.4328 2.36635 13.4683 2.93313L14.7861 24.1665Z" fill="#1E1E1E"/>
<path d="M35.46 31.2654H14.418V28.481C14.418 27.6308 15.1123 26.9365 15.9625 26.9365H33.9155C34.7657 26.9365 35.46 27.6308 35.46 28.481V31.2654Z" fill="#1E1E1E"/>
<path d="M35.8497 31.6551H14.0283V28.481C14.0283 27.4112 14.8998 26.5469 15.9625 26.5469H33.9155C34.9854 26.5469 35.8497 27.4183 35.8497 28.481V31.6551ZM14.8077 30.8757H35.0704V28.481C35.0704 27.8434 34.5532 27.3262 33.9155 27.3262H15.9625C15.3249 27.3262 14.8077 27.8434 14.8077 28.481V30.8757Z" fill="#1E1E1E"/>
<path d="M7.35449 15.1543H12.1297V17.9741H7.35449V15.1543Z" fill="#1E1E1E"/>
<path d="M12.5194 18.3711H6.96484V14.772H12.5194V18.3711ZM7.74418 17.5918H11.74V15.5513H7.74418V17.5918Z" fill="#1E1E1E"/>
<path d="M14.6652 29.3031H9.35156V17.606H10.1309V28.5237H14.6652V29.3031Z" fill="#1E1E1E"/>
<path d="M42.702 17.9819H37.9268V15.1621H42.702V17.9819Z" fill="#1E1E1E"/>
<path d="M43.0907 18.3711H37.5361V14.772H43.0907V18.3711ZM38.3084 17.5918H42.3042V15.5513H38.3084V17.5918Z" fill="#1E1E1E"/>
<path d="M40.7026 29.3031H35.3818V28.5237H39.9232V17.606H40.7026V29.3031Z" fill="#1E1E1E"/>
<path d="M15.2676 43.6359C15.2676 44.1789 15.4833 44.6997 15.8673 45.0837C16.2513 45.4677 16.7721 45.6834 17.3151 45.6834C17.8581 45.6834 18.3789 45.4677 18.7629 45.0837C19.1469 44.6997 19.3626 44.1789 19.3626 43.6359C19.3626 43.0929 19.1469 42.5721 18.7629 42.1881C18.3789 41.8041 17.8581 41.5884 17.3151 41.5884C16.7721 41.5884 16.2513 41.8041 15.8673 42.1881C15.4833 42.5721 15.2676 43.0929 15.2676 43.6359Z" fill="#1E1E1E"/>
<path d="M17.3161 46.08C15.97 46.08 14.8789 44.9889 14.8789 43.6428C14.8789 42.2966 15.97 41.2056 17.3161 41.2056C18.6622 41.2056 19.7533 42.2966 19.7533 43.6428C19.7533 44.9889 18.6622 46.08 17.3161 46.08ZM17.3161 41.9778C16.4022 41.9778 15.6582 42.7217 15.6582 43.6357C15.6582 44.5496 16.4022 45.2935 17.3161 45.2935C18.23 45.2935 18.974 44.5496 18.974 43.6357C18.974 42.7217 18.23 41.9778 17.3161 41.9778Z" fill="#1E1E1E"/>
<path d="M30.9541 43.6359C30.9541 44.1789 31.1698 44.6997 31.5538 45.0837C31.9378 45.4677 32.4586 45.6834 33.0016 45.6834C33.5447 45.6834 34.0655 45.4677 34.4494 45.0837C34.8334 44.6997 35.0492 44.1789 35.0492 43.6359C35.0492 43.0929 34.8334 42.5721 34.4494 42.1881C34.0655 41.8041 33.5447 41.5884 33.0016 41.5884C32.4586 41.5884 31.9378 41.8041 31.5538 42.1881C31.1698 42.5721 30.9541 43.0929 30.9541 43.6359Z" fill="#1E1E1E"/>
<path d="M33.0007 46.08C31.6545 46.08 30.5635 44.9889 30.5635 43.6428C30.5635 42.2966 31.6545 41.2056 33.0007 41.2056C34.3468 41.2056 35.4379 42.2966 35.4379 43.6428C35.4379 44.9889 34.3468 46.08 33.0007 46.08ZM33.0007 41.9778C32.0867 41.9778 31.3428 42.7217 31.3428 43.6357C31.3428 44.5496 32.0867 45.2935 33.0007 45.2935C33.9146 45.2935 34.6585 44.5496 34.6585 43.6357C34.6585 42.7217 33.9146 41.9778 33.0007 41.9778Z" fill="#1E1E1E"/>
<path d="M22.3242 31.3364H27.397V34.3404H22.3242V31.3364Z" fill="#1E1E1E"/>
<path d="M27.7935 34.7301H21.9414V30.9468H27.7935V34.7301ZM22.7137 33.9508H27.0071V31.7261H22.7137V33.9508Z" fill="#1E1E1E"/>
</svg>
