<svg width="63" height="52" viewBox="0 0 63 52" fill="none" xmlns="http://www.w3.org/2000/svg">
<path d="M9.47002 1.05225C8.88813 1.05225 8.41783 1.52365 8.41783 2.10443V13.6789C8.41783 15.0489 7.53508 16.2054 6.31334 16.642V2.10443C6.31334 1.52365 5.84305 1.05225 5.26116 1.05225C4.67927 1.05225 4.20898 1.52365 4.20898 2.10443V16.6409C2.98737 16.2053 2.10449 15.0489 2.10449 13.6789V2.10443C2.10449 1.52365 1.63419 1.05225 1.05231 1.05225C0.470418 1.05225 0 1.52365 0 2.10443V13.6789C0 16.2189 1.81089 18.3445 4.20886 18.8338V24.3506C2.39907 24.8209 1.05218 26.454 1.05218 28.4101V47.3501C1.05218 49.6703 2.9399 51.559 5.26104 51.559C7.58218 51.559 9.47002 49.6703 9.47002 47.3501V28.4101C9.47002 26.4541 8.12313 24.821 6.31334 24.3506V18.8338C8.71131 18.3445 10.5222 16.2191 10.5222 13.6789V2.10443C10.5222 1.52365 10.0519 1.05225 9.47002 1.05225ZM5.26116 33.6711C4.68038 33.6711 4.20898 33.1997 4.20898 32.619C4.20898 32.0382 4.68038 31.5668 5.26116 31.5668C5.84194 31.5668 6.31334 32.0382 6.31334 32.619C6.31334 33.1997 5.84194 33.6711 5.26116 33.6711Z" fill="#1E1E1E"/>
<path d="M59.9764 24.7862V1.05219C59.9764 0.62703 59.7207 0.24305 59.3272 0.0799146C58.9347 -0.0821115 58.4812 0.00630013 58.1803 0.30828C55.2667 3.2208 53.6631 7.09402 53.6631 11.2135V17.652C53.6631 20.0343 54.226 22.4186 55.2909 24.5482L55.4898 24.946C54.3881 25.7057 53.6631 26.9737 53.6631 28.4099V47.35C53.6631 49.6701 55.5508 51.5588 57.8719 51.5588C60.1931 51.5588 62.0808 49.6701 62.0808 47.35V28.4099C62.0809 26.859 61.2286 25.5164 59.9764 24.7862ZM55.7676 11.2135C55.7676 8.62291 56.502 6.14603 57.8721 4.01947V24.2011H57.4701L57.1734 23.6076C56.2538 21.7683 55.7676 19.7091 55.7676 17.652V11.2135ZM57.8719 33.6711C57.2912 33.6711 56.8198 33.1997 56.8198 32.6189C56.8198 32.0381 57.2912 31.5667 57.8719 31.5667C58.4527 31.5667 58.9241 32.0381 58.9241 32.6189C58.9241 33.1997 58.4528 33.6711 57.8719 33.6711Z" fill="#1E1E1E"/>
<path d="M31.5671 17.8877C25.863 17.8877 21.0449 22.7069 21.0449 28.4099C21.0449 34.1129 25.863 38.9321 31.5671 38.9321C37.2712 38.9321 42.0893 34.1129 42.0893 28.4099C42.0893 22.7069 37.2712 17.8877 31.5671 17.8877Z" fill="#1E1E1E"/>
<path d="M31.5664 8.39551C20.5423 8.39551 11.5742 17.3647 11.5742 28.3877C11.5742 39.4119 20.5424 48.3799 31.5664 48.3799C42.5905 48.3799 51.5587 39.4118 51.5587 28.3877C51.5587 17.3647 42.5906 8.39551 31.5664 8.39551ZM31.5664 41.0366C24.6039 41.0366 18.9397 35.3725 18.9397 28.4099C18.9397 21.4474 24.6039 15.7832 31.5664 15.7832C38.529 15.7832 44.1931 21.4474 44.1931 28.4099C44.1931 35.3725 38.529 41.0366 31.5664 41.0366Z" fill="#1E1E1E"/>
</svg>
