<svg width="45" height="47" viewBox="0 0 45 47" fill="none" xmlns="http://www.w3.org/2000/svg">
<path d="M44.293 38.2429C43.8377 37.1662 43.081 36.2549 42.1262 35.61C41.1729 34.9652 40.0114 34.5858 38.7774 34.5866C37.9554 34.5866 37.1643 34.7553 36.4472 35.0572C36.2749 35.1307 36.1074 35.2146 35.9435 35.3018L34.0048 29.9231L35.6723 27.2498C35.6723 21.4601 37.739 4.88645 32.851 0C27.9637 4.88645 28.5501 21.461 28.5501 27.2482L30.425 30.2573L28.312 35.318C27.4596 34.8522 26.4785 34.586 25.4446 34.5867C24.6221 34.586 23.8303 34.7547 23.114 35.0581C22.0364 35.5126 21.1259 36.2696 20.4811 37.2245C19.835 38.1785 19.4568 39.3399 19.458 40.5732C19.4572 41.3957 19.6254 42.1875 19.9294 42.9051C20.3846 43.9818 21.1408 44.8914 22.0957 45.5373C23.0493 46.1829 24.2096 46.5614 25.4449 46.5607C26.267 46.5607 27.0585 46.3944 27.7752 46.0893C28.8514 45.6341 29.7631 44.8762 30.4076 43.9222C31.0529 42.9681 31.4323 41.8083 31.4307 40.5733C31.4319 39.7509 31.2641 38.9591 30.9601 38.2431C30.7801 37.817 30.5509 37.419 30.2825 37.051L32.1107 34.1194L33.9404 37.0526C33.8977 37.11 33.8545 37.1672 33.8133 37.2246C33.1687 38.1786 32.7898 39.34 32.791 40.5733C32.7902 41.3958 32.9577 42.1876 33.2615 42.9052C33.7181 43.9819 34.4751 44.8924 35.4292 45.5373C36.3816 46.183 37.5431 46.5615 38.7777 46.5608C39.5993 46.5608 40.3915 46.3936 41.1086 46.0893C42.1849 45.6334 43.0958 44.8763 43.7411 43.9223C44.386 42.9682 44.7654 41.8084 44.7645 40.5734C44.7643 39.7507 44.5969 38.9589 44.293 38.2429ZM28.0137 41.658C27.8031 42.156 27.448 42.5854 27.002 42.8856C26.5548 43.1866 26.0278 43.3611 25.445 43.3611C25.0552 43.3611 24.6928 43.2827 24.3598 43.1431C23.8619 42.9332 23.4324 42.5764 23.1314 42.1301C22.8308 41.6845 22.6576 41.1567 22.6573 40.5731C22.6564 40.1833 22.7347 39.8216 22.8748 39.4883C23.085 38.9911 23.4413 38.5626 23.8865 38.2607C24.3341 37.9596 24.8611 37.786 25.445 37.7853C25.8344 37.786 26.1965 37.8636 26.5294 38.004C27.0275 38.2147 27.456 38.5698 27.7567 39.0154C28.0578 39.4633 28.2312 39.9904 28.2317 40.5731C28.2321 40.9622 28.1546 41.3254 28.0137 41.658ZM41.3469 41.658C41.137 42.156 40.7803 42.5854 40.3352 42.8856C39.8884 43.1866 39.3606 43.3594 38.7778 43.3611C38.3879 43.3611 38.0262 43.2827 37.6934 43.1431C37.195 42.9324 36.766 42.5764 36.4649 42.1301C36.1647 41.6845 35.9907 41.1559 35.9899 40.5731C35.9907 40.1833 36.0679 39.8216 36.2083 39.4883C36.419 38.9911 36.7745 38.5626 37.22 38.2607C37.6667 37.9596 38.1947 37.786 38.7778 37.7853C39.1668 37.786 39.5292 37.8636 39.8621 38.004C40.3601 38.2147 40.7899 38.5698 41.0902 39.0154C41.3905 39.4626 41.5648 39.9904 41.566 40.5731C41.5652 40.9622 41.4878 41.3254 41.3469 41.658Z" fill="#1E1E1E"/>
<path d="M8.64008 19.7595L15.3418 19.7611C16.1195 19.7611 16.7494 19.13 16.7502 18.3535C16.7494 17.577 16.119 16.9458 15.3431 16.9458L8.64008 16.9475C8.3749 16.9458 8.15946 16.7311 8.15828 16.4648L8.15955 15.1071C8.15955 14.8407 8.37499 14.626 8.64135 14.626L15.3418 14.6276C16.1195 14.6276 16.7494 13.9964 16.7482 13.2199C16.7494 12.4402 16.1195 11.8138 15.3418 11.8138H8.63971C8.37499 11.8123 8.1591 11.596 8.15783 11.3311L8.1591 9.97514C8.1591 9.70723 8.37499 9.49089 8.63971 9.49243L15.3427 9.49089C16.1203 9.49089 16.7483 8.86286 16.7483 8.08315C16.7495 7.30834 16.1196 6.67722 15.3419 6.67722H8.64017C8.37499 6.67877 8.15874 6.46251 8.1591 6.19615V4.84034C8.1591 4.57398 8.37499 4.35927 8.64053 4.35927L14.92 4.35763C15.9306 4.35763 16.7494 3.53754 16.7494 2.5303C16.7494 1.51969 15.9298 0.699688 14.9205 0.699688L4.58781 0.417321C3.38113 0.38822 2.21402 0.846737 1.35109 1.68774C0.487072 2.53193 0.00118217 3.68614 0.00118217 4.89363L0 42.0817C0 43.2876 0.486345 44.4434 1.35082 45.2861C2.21401 46.1303 3.38113 46.5871 4.58745 46.5598L14.9204 46.274C15.9302 46.274 16.7493 45.4572 16.7482 44.4466C16.7482 43.4361 15.9298 42.616 14.92 42.616H8.64053C8.37499 42.616 8.15864 42.4013 8.1591 42.135L8.15783 40.7789C8.15783 40.5127 8.37335 40.2963 8.64008 40.2963H15.3418C16.1195 40.2963 16.7494 39.6651 16.7502 38.8903C16.7494 38.1138 16.1199 37.4827 15.3418 37.4827H8.63971C8.37335 37.4827 8.15783 37.2662 8.15864 37.0016L8.15783 35.6456C8.15864 35.3792 8.37535 35.1613 8.64008 35.1629H15.3418C16.1195 35.1629 16.7494 34.5317 16.7482 33.7569C16.7494 32.9804 16.1195 32.3477 15.3418 32.3477H8.63971C8.37453 32.3477 8.15783 32.133 8.15783 31.8665L8.1591 30.5106C8.1591 30.2442 8.37499 30.0295 8.63971 30.0295H15.3427C16.1195 30.0295 16.7495 29.4 16.7495 28.6219C16.7483 27.8437 16.1196 27.2158 15.3427 27.2141H8.64017C8.37499 27.2141 8.1591 26.9978 8.1591 26.7331V25.3754C8.1591 25.1092 8.37499 24.8945 8.64135 24.8945H15.3414C16.1199 24.8928 16.7486 24.2649 16.7499 23.4868C16.7499 22.7103 16.1195 22.0807 15.3419 22.0807H8.64062C8.37626 22.0807 8.15992 21.8645 8.15955 21.598V20.2404C8.15819 19.9758 8.3749 19.7595 8.64008 19.7595Z" fill="#1E1E1E"/>
</svg>
