<svg width="50" height="44" viewBox="0 0 50 44" fill="none" xmlns="http://www.w3.org/2000/svg">
<path d="M9.31217 0L0 9.31217V12.4162C0 12.4162 6.20811 15.5203 12.4162 15.5203C18.6243 15.5203 24.8325 12.4162 24.8325 12.4162C24.8325 12.4162 31.0406 15.5203 37.2487 15.5203C43.4568 15.5203 49.6649 12.4162 49.6649 12.4162V9.31217L40.3527 0H9.31217Z" fill="#1E1E1E"/>
<path fill-rule="evenodd" clip-rule="evenodd" d="M3.10449 43.4569V20.2345C5.63961 20.9977 8.94533 21.7285 12.4167 21.7285C16.4597 21.7285 20.2781 20.7372 22.916 19.8579C23.62 19.6232 24.2637 19.3884 24.8329 19.1685C25.4021 19.3884 26.0458 19.6232 26.7498 19.8579C29.3877 20.7372 33.2061 21.7285 37.2491 21.7285C40.7204 21.7285 44.0262 20.9977 46.5613 20.2345V43.4569H21.7288V27.9366H12.4167V43.4569H3.10449ZM37.2491 27.9366H31.041V37.2488H37.2491V27.9366Z" fill="#1E1E1E"/>
</svg>
