<svg width="49" height="55" viewBox="0 0 49 55" fill="none" xmlns="http://www.w3.org/2000/svg">
<path d="M16.861 30.366H48.1129V27.8536H37.623L37.5795 27.9402L37.3184 27.8536H16.861V30.366ZM16.7304 0C19.8208 0 22.3018 2.46914 22.3018 5.54473C22.3018 8.62032 19.8208 11.0895 16.7304 11.0895C13.6401 11.0895 11.1591 8.62032 11.1591 5.54473C11.1591 2.46914 13.6401 0 16.7304 0ZM42.6721 11.8259L35.7079 6.58436L34.8809 9.22677L30.7894 7.88391L26.1756 21.7457L18.6021 21.8324L12.2037 11.0461C11.7249 10.1798 10.7673 9.70327 9.67916 9.70327C9.54858 9.70327 9.15685 9.74659 8.98274 9.78991C8.85216 9.83323 8.63453 9.87654 8.46042 9.91986C3.71606 11.4793 0.0163224 18.8434 0.0163224 26.5107C-0.0272039 28.8066 0.0163221 30.7559 0.146901 32.6186C-0.0272042 34.8278 1.27858 37.037 3.4549 37.8168C4.06427 37.99 4.58658 38.12 5.15243 38.12H19.2114V51.1588C19.2114 52.9348 20.6478 54.321 22.3888 54.321C24.1734 54.321 25.5663 52.8915 25.5663 51.1588V35.0444C25.5663 34.2214 25.2616 33.3983 24.6087 32.8352C23.9558 32.1854 23.1288 31.8389 22.3888 31.8389H12.9872V24.8646L8.11221 16.6342C7.93811 16.331 8.06869 15.8545 8.32985 15.6812C8.63453 15.5079 9.11332 15.6379 9.28742 15.8978L14.8588 25.4711C15.2941 26.2075 16.034 26.7273 16.9481 26.7273H26.6109C27.6555 26.7273 28.526 26.0342 28.9178 25.1679L37.2748 27.8969L37.5795 27.9835L37.623 27.8969L42.9333 11.9125L42.6721 11.8259ZM37.0137 26.814L29.0919 24.2149C29.0919 23.0886 28.2649 22.0923 27.2203 21.8757L31.4423 9.0535L41.758 12.4323L37.0137 26.814Z" fill="#1E1E1E"/>
</svg>
